<?xml version="1.0" encoding="UTF-8"?>
<svg version="1.1" xmlns="http://www.w3.org/2000/svg" width="128" height="128">
<path d="M0 0 C7.7287267 -0.24976137 15.30899634 0.07310865 23 0.8125 C23.81251221 0.88259277 24.62502441 0.95268555 25.4621582 1.02490234 C31.55197438 1.65874423 35.15916979 2.87330708 39.2890625 7.64453125 C40.05992188 8.68996094 40.83078125 9.73539063 41.625 10.8125 C42.49524482 11.97719729 43.36637134 13.1412362 44.23828125 14.3046875 C44.68768066 14.90893555 45.13708008 15.51318359 45.60009766 16.13574219 C47.95648177 19.27375214 50.38437408 22.35488265 52.8125 25.4375 C53.25609863 26.00380127 53.69969727 26.57010254 54.15673828 27.15356445 C56.32651759 29.91528693 58.53198327 32.62390711 60.82421875 35.28515625 C63 38 63 38 63 40 C63.66 40 64.32 40 65 40 C65.22816406 39.47148438 65.45632812 38.94296875 65.69140625 38.3984375 C67.43557873 35.20165571 69.66670312 32.45552529 71.9375 29.625 C72.92719406 28.37899419 73.91677397 27.13289771 74.90625 25.88671875 C75.41542969 25.24782715 75.92460938 24.60893555 76.44921875 23.95068359 C78.96063216 20.79164814 81.44793875 17.61376345 83.9375 14.4375 C85.62249004 12.28966056 87.31037635 10.14420635 89 8 C89.95519531 6.60201172 89.95519531 6.60201172 90.9296875 5.17578125 C93.61568349 2.3529515 95.3545301 2.17130613 99.1875 1.75 C100.92580078 1.54503906 100.92580078 1.54503906 102.69921875 1.3359375 C103.78847656 1.22507813 104.87773438 1.11421875 106 1 C107.18529297 0.83371094 107.18529297 0.83371094 108.39453125 0.6640625 C114.90971446 -0.23041534 121.43633755 -0.09130288 128 0 C128.27525177 7.52354828 127.86718654 14.94868924 127.1875 22.4375 C127.11740723 23.30149414 127.04731445 24.16548828 126.97509766 25.05566406 C126.36146695 31.33404925 125.2769249 35.02913147 120.35546875 39.2890625 C119.31003906 40.05992188 118.26460938 40.83078125 117.1875 41.625 C116.0175954 42.49915245 114.84834734 43.37418411 113.6796875 44.25 C112.77234863 44.92482422 112.77234863 44.92482422 111.84667969 45.61328125 C108.79778049 47.90277721 105.80569647 50.26342185 102.8125 52.625 C101.94153687 53.31033813 101.94153687 53.31033813 101.05297852 54.00952148 C96.01327807 57.97879268 90.99923149 61.97988067 86 66 C87.15173355 68.46800047 88.04783565 70.04783565 90 72 C90.721875 71.360625 91.44375 70.72125 92.1875 70.0625 C95.05483613 67.95978684 96.47605824 67.08809854 100 67 C102.75 68.0625 102.75 68.0625 105 70 C106.0625 72.8125 106.0625 72.8125 106 76 C104.73339467 78.04291182 103.40113616 80.04690112 102 82 C102 86.41985514 102.30219374 86.84657719 105.02734375 90.00390625 C105.65447266 90.74447266 106.28160156 91.48503906 106.92773438 92.24804688 C107.59095703 93.01181641 108.25417969 93.77558594 108.9375 94.5625 C110.24210916 96.08135583 111.54306354 97.60336071 112.83984375 99.12890625 C113.42113037 99.79994385 114.00241699 100.47098145 114.60131836 101.16235352 C116 103 116 103 117 106 C117.886875 106.061875 118.77375 106.12375 119.6875 106.1875 C123.99478434 107.24400371 125.46685084 108.34928504 128 112 C128.70643361 115.46950055 128.73422308 118.53378407 128 122 C125.5625 125.0625 125.5625 125.0625 123 127 C122.67 127.33 122.34 127.66 122 128 C116.95082202 128.65452307 113.19480498 128.82904836 108.9375 125.875 C106.83847246 122.76031397 106.56738172 120.64745393 106 117 C104.67507079 116.31678349 103.3390009 115.65520898 102 115 C99.79312799 113.21945554 97.63792353 111.42166933 95.5 109.5625 C90.37234698 105.12999697 90.37234698 105.12999697 85 101 C82.71480423 102.10027945 80.70054552 103.21277029 78.625 104.6875 C75.2280931 106.38595345 73.57842342 106.1668772 70 105 C68.0625 103.3125 68.0625 103.3125 67 101 C67.10400046 96.11197846 68.7549921 93.55904092 72 90 C69.69 88.02 67.38 86.04 65 84 C61.06326356 85.31224548 58.77280706 86.91910327 56 90 C56.639375 90.721875 57.27875 91.44375 57.9375 92.1875 C60.04021316 95.05483613 60.91190146 96.47605824 61 100 C59.9375 102.75 59.9375 102.75 58 105 C55.1875 106.0625 55.1875 106.0625 52 106 C49.95708818 104.73339467 47.95309888 103.40113616 46 102 C41.58014486 102 41.15342281 102.30219374 37.99609375 105.02734375 C37.25552734 105.65447266 36.51496094 106.28160156 35.75195312 106.92773438 C34.98818359 107.59095703 34.22441406 108.25417969 33.4375 108.9375 C31.91864417 110.24210916 30.39663929 111.54306354 28.87109375 112.83984375 C27.86453735 113.71177368 27.86453735 113.71177368 26.83764648 114.60131836 C25 116 25 116 22 117 C21.9071875 118.3303125 21.9071875 118.3303125 21.8125 119.6875 C20.75599629 123.99478434 19.65071496 125.46685084 16 128 C11.03963421 128.93668648 7.27133894 128.77837078 2.9375 126.125 C-0.45594689 122.40315502 -0.40031724 119.37744104 -0.34375 114.484375 C0 112 0 112 2.125 108.9375 C5.23968603 106.83847246 7.35254607 106.56738172 11 106 C11.68321651 104.67507079 12.34479102 103.3390009 13 102 C14.78054446 99.79312799 16.57833067 97.63792353 18.4375 95.5 C22.87000303 90.37234698 22.87000303 90.37234698 27 85 C25.89972055 82.71480423 24.78722971 80.70054552 23.3125 78.625 C22 76 22 76 22 72.875 C23 70 23 70 25.25 68.0625 C28.50927951 66.80323292 29.74606013 66.77977255 33 68 C35.8125 70.0625 35.8125 70.0625 38 72 C39.32 70.68 40.64 69.36 42 68 C40.66231239 64.90943762 39.35447664 63.21166407 36.6484375 61.22265625 C35.96934326 60.71524902 35.29024902 60.2078418 34.59057617 59.68505859 C33.85943604 59.14961426 33.1282959 58.61416992 32.375 58.0625 C30.83563026 56.91230697 29.29791222 55.75990057 27.76171875 54.60546875 C26.97458496 54.01427246 26.18745117 53.42307617 25.37646484 52.81396484 C20.89181197 49.39081189 16.53984896 45.80555043 12.17919922 42.22680664 C11.55674316 41.71625732 10.93428711 41.20570801 10.29296875 40.6796875 C9.43094849 39.96365356 9.43094849 39.96365356 8.55151367 39.2331543 C6.91420618 37.884742 6.91420618 37.884742 4.625 36.51171875 C2.19797228 34.25388287 2.20254188 32.17755083 1.8125 28.9375 C1.66683594 27.7721875 1.52117188 26.606875 1.37109375 25.40625 C1.24863281 24.2821875 1.12617188 23.158125 1 22 C0.88785156 21.1234375 0.77570312 20.246875 0.66015625 19.34375 C-0.10395013 12.8959482 -0.10029577 6.48579326 0 0 Z " fill="#010404" transform="translate(0,0)"/>
<path d="M0 0 C3.67348353 -0.14009047 7.32515953 -0.07871699 11 0 C12.27746094 -0.02707031 13.55492187 -0.05414062 14.87109375 -0.08203125 C20.92797286 0.01621615 25.91717087 0.4707035 30.3046875 4.98046875 C32.97252433 8.14474633 35.31061387 11.51887437 37.60742188 14.95849609 C39.76547222 18.12217368 42.16565366 21.07843693 44.5625 24.0625 C45.47167682 25.2187764 46.37923245 26.3763294 47.28515625 27.53515625 C49.56192885 30.44158724 51.84179748 33.34556471 54.12329102 36.24829102 C55.03940237 37.41394077 55.95525624 38.57979294 56.87084961 39.74584961 C59.18324919 42.69058776 61.49881314 45.63274144 63.8203125 48.5703125 C69.65916022 55.96625373 75.38603292 63.43154068 81 71 C79.07712966 75.29378813 76.37521131 77.77153701 73 81 C67.93718904 79.44221201 64.47906713 76.34822776 60.5 73 C59.06622164 71.81375222 57.63131165 70.62887096 56.1953125 69.4453125 C55.48536133 68.85911133 54.77541016 68.27291016 54.04394531 67.66894531 C51.19834196 65.34542112 48.29750005 63.10056478 45.375 60.875 C40.91208289 57.46865513 36.47399543 54.03518419 32.0625 50.5625 C31.48459717 50.10762207 30.90669434 49.65274414 30.3112793 49.18408203 C29.13673463 48.25913831 27.96233768 47.33400697 26.78808594 46.40869141 C24.35749421 44.49382053 21.92584018 42.5803227 19.4909668 40.67089844 C18.29770984 39.73076638 17.10897086 38.78486866 15.92504883 37.83300781 C13.40197378 35.81454777 10.96951546 33.98172623 8.19140625 32.31640625 C4.04912593 29.76476157 2.32942608 28.1992151 1.01171875 23.40234375 C0.34546129 19.28191151 0.10801631 15.1684008 0 11 C-0.03222656 9.85015625 -0.06445312 8.7003125 -0.09765625 7.515625 C-0.12042617 5.00442795 -0.09568512 2.50907645 0 0 Z " fill="#00808C" transform="translate(5,5)"/>
<path d="M0 0 C0.14009047 3.67348353 0.07871699 7.32515953 0 11 C0.02707031 12.27746094 0.05414063 13.55492187 0.08203125 14.87109375 C-0.01621615 20.92797286 -0.4707035 25.91717087 -4.98046875 30.3046875 C-8.13784498 32.96661422 -11.50423373 35.29845927 -14.93652344 37.58984375 C-18.21565713 39.83076616 -21.27923114 42.32795142 -24.375 44.8125 C-25.52492361 45.71106806 -26.67593085 46.60825145 -27.828125 47.50390625 C-29.82722809 49.06548109 -31.7840288 50.65298399 -33.734375 52.27734375 C-34.91773438 53.25380859 -34.91773438 53.25380859 -36.125 54.25 C-36.78757812 54.81203125 -37.45015625 55.3740625 -38.1328125 55.953125 C-40 57 -40 57 -42.1328125 56.80078125 C-44.6071814 55.73959794 -45.56234149 54.22837069 -47 52 C-45.37726139 47.84297673 -42.33236482 45.13011843 -39.1875 42.09765625 C-38.01811153 40.94868742 -36.84884442 39.79959507 -35.6796875 38.65039062 C-33.83876129 36.85295666 -31.99543616 35.05806922 -30.14941406 33.26586914 C-28.36395645 31.52878952 -26.58788422 29.78252147 -24.8125 28.03515625 C-24.26037842 27.50479263 -23.70825684 26.97442902 -23.1394043 26.42799377 C-20.16535162 23.49260868 -18.20782357 21.02685045 -17 17 C-22.12013226 18.48446095 -24.9986778 21.61030787 -28.61328125 25.3203125 C-29.53490303 26.24830154 -29.53490303 26.24830154 -30.47514343 27.19503784 C-32.42810705 29.16473969 -34.37035675 31.1446341 -36.3125 33.125 C-37.63797757 34.46553062 -38.96414204 35.80538241 -40.29101562 37.14453125 C-43.5353552 40.42187569 -46.77012828 43.70839889 -50 47 C-52.5 44.75 -52.5 44.75 -55 42 C-55 37.28371961 -53.51338471 35.5880066 -50.6875 32.125 C-50.24108154 31.56200195 -49.79466309 30.99900391 -49.3347168 30.41894531 C-48.38422759 29.2212133 -47.42976194 28.02662788 -46.47167969 26.83496094 C-44.53431143 24.41935712 -42.62521596 21.98229492 -40.71972656 19.54150391 C-39.78173603 18.34737231 -38.83573245 17.15949166 -37.88183594 15.97802734 C-35.83770545 13.4361518 -34.01362213 11.02369067 -32.3828125 8.1875 C-30.43412374 4.90106273 -28.90221649 2.56027858 -25.09521484 1.43896484 C-16.82098321 -0.16173219 -8.39306799 -0.05840107 0 0 Z " fill="#00808C" transform="translate(123,5)"/>
<path d="M0 0 C3.67348353 -0.14009047 7.32515953 -0.07871699 11 0 C12.27746094 -0.02707031 13.55492187 -0.05414062 14.87109375 -0.08203125 C20.92797286 0.01621615 25.91717087 0.4707035 30.3046875 4.98046875 C32.97252433 8.14474633 35.31061387 11.51887437 37.60742188 14.95849609 C39.76547222 18.12217368 42.16565366 21.07843693 44.5625 24.0625 C45.47167682 25.2187764 46.37923245 26.3763294 47.28515625 27.53515625 C49.56192885 30.44158724 51.84179748 33.34556471 54.12329102 36.24829102 C55.03940237 37.41394077 55.95525624 38.57979294 56.87084961 39.74584961 C59.18324919 42.69058776 61.49881314 45.63274144 63.8203125 48.5703125 C69.65916022 55.96625373 75.38603292 63.43154068 81 71 C79.63016497 74.16115776 79.0109362 74.9927092 76 77 C73.19179094 74.30838857 70.40664426 71.5940349 67.625 68.875 C66.8309375 68.11445312 66.036875 67.35390625 65.21875 66.5703125 C64.45820312 65.82265625 63.69765625 65.075 62.9140625 64.3046875 C62.2123291 63.62390137 61.5105957 62.94311523 60.78759766 62.24169922 C59 60 59 60 58.24658203 57.25537109 C56.36034705 52.32958629 52.84883464 49.27798995 49.140625 45.609375 C48.35862732 44.82355042 47.57662964 44.03772583 46.77093506 43.22808838 C45.11815608 41.57259258 43.46033547 39.92211684 41.79785156 38.27636719 C39.25890796 35.75883284 36.7419908 33.22069309 34.2265625 30.6796875 C32.61586428 29.07163259 31.00392564 27.46481899 29.390625 25.859375 C28.64041077 25.10106384 27.89019653 24.34275269 27.11724854 23.5614624 C23.18458632 19.69826342 20.4009756 17.51754442 15 16 C14.319375 14.329375 14.319375 14.329375 13.625 12.625 C11.64610857 8.21054989 10.18285839 7.77312602 5.94140625 5.9765625 C3.16940443 4.58219539 1.69607669 2.54411503 0 0 Z " fill="#01B8D0" transform="translate(5,5)"/>
<path d="M0 0 C-4.15397083 5.66450567 -4.15397083 5.66450567 -8.625 7.4375 C-12.33174808 8.69689171 -12.33174808 8.69689171 -13.5 12.5 C-15 16 -15 16 -18.16821289 17.31762695 C-18.79639923 17.56235748 -19.42458557 17.80708801 -20.07180786 18.05923462 C-23.60679972 19.78395795 -26.10429058 22.61679389 -28.80859375 25.41796875 C-29.72597069 26.34383537 -29.72597069 26.34383537 -30.66188049 27.28840637 C-32.59675235 29.24551618 -34.51718069 31.2161199 -36.4375 33.1875 C-37.75362462 34.52370576 -39.07067312 35.85900219 -40.38867188 37.19335938 C-43.60323043 40.4518182 -46.80491696 43.72244683 -50 47 C-52.5 44.75 -52.5 44.75 -55 42 C-55 37.28371961 -53.51338471 35.5880066 -50.6875 32.125 C-50.24108154 31.56200195 -49.79466309 30.99900391 -49.3347168 30.41894531 C-48.38422759 29.2212133 -47.42976194 28.02662788 -46.47167969 26.83496094 C-44.53431143 24.41935712 -42.62521596 21.98229492 -40.71972656 19.54150391 C-39.78173603 18.34737231 -38.83573245 17.15949166 -37.88183594 15.97802734 C-35.83770545 13.4361518 -34.01362213 11.02369067 -32.3828125 8.1875 C-30.43412374 4.90106273 -28.90221649 2.56027858 -25.09521484 1.43896484 C-16.82098321 -0.16173219 -8.39306799 -0.05840107 0 0 Z " fill="#00B8D0" transform="translate(123,5)"/>
<path d="M0 0 C4.09892308 0.51816491 6.05867957 1.55312435 8.97998047 4.4465332 C10.09540726 5.53820549 10.09540726 5.53820549 11.23336792 6.65193176 C12.02002838 7.44355209 12.80668884 8.23517242 13.6171875 9.05078125 C14.4337381 9.86113327 15.2502887 10.67148529 16.09158325 11.50639343 C17.81280907 13.2205202 19.52891448 14.93980179 21.24023438 16.66381836 C23.8703669 19.30784243 26.52363116 21.92697075 29.1796875 24.54492188 C30.84780639 26.21208988 32.51452255 27.88066285 34.1796875 29.55078125 C34.97849335 30.33632889 35.77729919 31.12187653 36.60031128 31.93122864 C37.32501617 32.66846664 38.04972107 33.40570465 38.79638672 34.1652832 C39.44082733 34.81068558 40.08526794 35.45608795 40.74923706 36.12104797 C42 38 42 38 41.70022583 40.2396698 C41.46915131 40.82057877 41.23807678 41.40148773 41 42 C37.40369681 41.41825975 35.71270386 40.09539784 33.14941406 37.5534668 C32.03871552 36.46179451 32.03871552 36.46179451 30.90557861 35.34806824 C30.11689392 34.55644791 29.32820923 33.76482758 28.515625 32.94921875 C27.70003113 32.13886673 26.88443726 31.32851471 26.04412842 30.49360657 C24.32235007 28.77825185 22.60444492 27.05900196 20.89013672 25.33618164 C18.25849609 22.69602359 15.60874611 20.07505508 12.95703125 17.45507812 C11.28793124 15.78758992 9.61992462 14.11900639 7.953125 12.44921875 C7.15634338 11.66367111 6.35956177 10.87812347 5.53863525 10.06877136 C4.8107782 9.33153336 4.08292114 8.59429535 3.33300781 7.8347168 C2.68777161 7.18931442 2.0425354 6.54391205 1.37774658 5.87895203 C0 4 0 4 0 0 Z " fill="#001517" transform="translate(22,22)"/>
<path d="M0 0 C4.35302163 3.1831968 7.51614464 6.79263588 10.8125 11 C11.31458984 11.61617187 11.81667969 12.23234375 12.33398438 12.8671875 C15.00365316 16.25240016 16 17.56258452 16 22 C14.5 23.75 14.5 23.75 13 25 C8.82502963 23.22119057 5.47094655 20.41359748 1.9375 17.625 C1.31294922 17.14289063 0.68839844 16.66078125 0.04492188 16.1640625 C-0.55900391 15.6896875 -1.16292969 15.2153125 -1.78515625 14.7265625 C-2.33051025 14.29939941 -2.87586426 13.87223633 -3.43774414 13.43212891 C-5 12 -5 12 -8 8 C-5.36 5.36 -2.72 2.72 0 0 Z " fill="#765246" transform="translate(95,87)"/>
<path d="M0 0 C1.12894876 0.93274109 2.25300876 1.87140122 3.375 2.8125 C4.00148438 3.33457031 4.62796875 3.85664062 5.2734375 4.39453125 C7 6 7 6 9 9 C2.85340818 14.58241189 -3.46888353 19.87327809 -10 25 C-12.62187494 23.95125002 -13.79371361 23.35068687 -15.25 20.875 C-15.4975 20.25625 -15.745 19.6375 -16 19 C-15.26394531 18.13117188 -14.52789063 17.26234375 -13.76953125 16.3671875 C-12.78384194 15.20313536 -11.79816554 14.03907227 -10.8125 12.875 C-10.32974609 12.30523437 -9.84699219 11.73546875 -9.34960938 11.1484375 C-6.21565305 7.44658305 -3.100626 3.72982068 0 0 Z " fill="#755246" transform="translate(32,87)"/>
<path d="M0 0 C0.54438721 0.2683667 1.08877441 0.5367334 1.6496582 0.81323242 C1.19013791 5.1442915 -1.6273245 7.5578017 -4.55737305 10.48901367 C-5.07917648 11.01843063 -5.60097992 11.5478476 -6.13859558 12.0933075 C-7.24183791 13.20733636 -8.34906215 14.31743406 -9.45996094 15.42382812 C-11.16050073 17.12339269 -12.83858524 18.84317739 -14.51635742 20.56518555 C-15.5912266 21.64525957 -16.66735694 22.72408029 -17.74487305 23.80151367 C-18.24606155 24.31909744 -18.74725006 24.83668121 -19.2636261 25.36994934 C-20.70898438 26.78710938 -20.70898438 26.78710938 -23.3503418 28.81323242 C-25.70068359 28.62646484 -25.70068359 28.62646484 -27.3503418 27.81323242 C-26.89082151 23.48217334 -24.0733591 21.06866314 -21.14331055 18.13745117 C-20.62150711 17.60803421 -20.09970367 17.07861725 -19.56208801 16.53315735 C-18.45884568 15.41912848 -17.35162145 14.30903078 -16.24072266 13.20263672 C-14.54018287 11.50307215 -12.86209835 9.78328745 -11.18432617 8.0612793 C-10.10945699 6.98120528 -9.03332666 5.90238455 -7.95581055 4.82495117 C-7.45462204 4.3073674 -6.95343353 3.78978363 -6.4370575 3.2565155 C-2.88215969 -0.22902796 -2.88215969 -0.22902796 0 0 Z " fill="#DFBE2D" transform="translate(99.350341796875,72.186767578125)"/>
<path d="M0 0 C4.33105908 0.45952029 6.74456928 3.2769827 9.67578125 6.20703125 C10.20519821 6.72883469 10.73461517 7.25063812 11.28007507 7.78825378 C12.39410394 8.89149611 13.50420164 9.99872035 14.6105957 11.10961914 C16.31016027 12.81015893 18.02994497 14.48824345 19.75195312 16.16601562 C20.83202715 17.24088481 21.91084787 18.31701514 22.98828125 19.39453125 C23.50586502 19.89571976 24.02344879 20.39690826 24.55671692 20.9132843 C25.97387695 22.35864258 25.97387695 22.35864258 28 25 C27.81323242 27.3503418 27.81323242 27.3503418 27 29 C22.53836447 27.58632233 19.69282025 25.16020876 16.4453125 21.9140625 C15.68660355 21.16677383 15.68660355 21.16677383 14.91256714 20.40438843 C13.85160641 19.35418866 12.79454488 18.30003665 11.74121094 17.2421875 C10.1229285 15.62292725 8.48443069 14.02621111 6.84375 12.4296875 C5.8138071 11.40494784 4.7851157 10.37894845 3.7578125 9.3515625 C3.26523956 8.87538483 2.77266663 8.39920715 2.26516724 7.90859985 C0.91845703 6.53369141 0.91845703 6.53369141 -1 4 C-0.79736328 1.66552734 -0.79736328 1.66552734 0 0 Z " fill="#DEBE2D" transform="translate(28,72)"/>
<path d="M0 0 C3.2826932 1.49076434 5.93077441 3.38620321 8.75 5.625 C9.94882812 6.57246094 9.94882812 6.57246094 11.171875 7.5390625 C11.77515625 8.02117187 12.3784375 8.50328125 13 9 C11.88333826 12.34998521 11.25305075 12.79340222 8.4375 14.6875 C7.79683594 15.12449219 7.15617187 15.56148437 6.49609375 16.01171875 C5.75552734 16.50091797 5.75552734 16.50091797 5 17 C0.70761377 15.34908222 -1.8793915 12.26245434 -5 9 C-3.7508258 5.54074837 -2.32472205 2.85306797 0 0 Z " fill="#04B4CB" transform="translate(47,69)"/>
<path d="M0 0 C1.875 1.125 1.875 1.125 3 3 C3.54400387 6.65259739 3.43774093 8.3433886 1.375 11.4375 C-1 13 -1 13 -4.0625 13 C-7 12 -7 12 -8.9375 10.3125 C-10.39615475 7.13778084 -10.00471852 5.30121799 -9 2 C-5.53076119 -0.31282587 -4.07794425 -0.42478586 0 0 Z " fill="#EFCC31" transform="translate(14,111)"/>
<path d="M0 0 C2.4375 1.625 2.4375 1.625 4 4 C4 7.55053329 3.64301849 9.28808667 1.25 11.9375 C-1 13 -1 13 -3.5625 12.875 C-6.24955992 11.91041439 -7.43467041 11.38918727 -9 9 C-9.39365568 5.85075452 -9.52854531 3.88090884 -7.875 1.125 C-5.07553259 -0.55468045 -3.20195936 -0.45742277 0 0 Z " fill="#F0CD31" transform="translate(120,111)"/>
<path d="M0 0 C1.98 1.32 3.96 2.64 6 4 C4.88333826 7.34998521 4.25305075 7.79340222 1.4375 9.6875 C0.47650391 10.34298828 0.47650391 10.34298828 -0.50390625 11.01171875 C-0.99761719 11.33785156 -1.49132813 11.66398437 -2 12 C-3.32 11.34 -4.64 10.68 -6 10 C-6 6 -6 6 -4.6875 4.296875 C-4.130625 3.78640625 -3.57375 3.2759375 -3 2.75 C-2.1646875 1.96882813 -2.1646875 1.96882813 -1.3125 1.171875 C-0.879375 0.78515625 -0.44625 0.3984375 0 0 Z " fill="#007F8A" transform="translate(54,74)"/>
<path d="M0 0 C-0.36512747 2.7019433 -0.69869237 4.58390852 -2.3125 6.8125 C-4 8 -4 8 -8 8 C-7.6641593 4.89347355 -7.40950721 3.39585697 -5.125 1.1875 C-3 0 -3 0 0 0 Z " fill="#001011" transform="translate(117,11)"/>
<path d="M0 0 C2.91517292 1.07401108 4.77810176 1.77810176 7 4 C7 5.32 7 6.64 7 8 C3.88045262 7.66275164 2.3790035 7.3790035 0.125 5.125 C-0.24625 4.42375 -0.6175 3.7225 -1 3 C-0.67 2.01 -0.34 1.02 0 0 Z " fill="#000F11" transform="translate(12,11)"/>
</svg>
