<?xml version="1.0" encoding="UTF-8"?>
<svg version="1.1" xmlns="http://www.w3.org/2000/svg" width="128" height="128">
<path d="M0 0 C18.48 0 36.96 0 56 0 C56 2.97 56 5.94 56 9 C58.97 9 61.94 9 65 9 C65 11.97 65 14.94 65 18 C67.97 18 70.94 18 74 18 C74 20.97 74 23.94 74 27 C76.97 27 79.94 27 83 27 C83 32.94 83 38.88 83 45 C85.97 45 88.94 45 92 45 C92 69.42 92 93.84 92 119 C89.03 119 86.06 119 83 119 C83 121.97 83 124.94 83 128 C76.73 128 70.46 128 64 128 C64 125.03 64 122.06 64 119 C61.03 119 58.06 119 55 119 C55 116.03 55 113.06 55 110 C52.36 110 49.72 110 47 110 C47 112.97 47 115.94 47 119 C44.03 119 41.06 119 38 119 C38 121.97 38 124.94 38 128 C31.4 128 24.8 128 18 128 C18 125.03 18 122.06 18 119 C15.03 119 12.06 119 9 119 C9 116.03 9 113.06 9 110 C6.36 110 3.72 110 1 110 C1 112.97 1 115.94 1 119 C-1.97 119 -4.94 119 -8 119 C-8 121.97 -8 124.94 -8 128 C-14.27 128 -20.54 128 -27 128 C-27 125.03 -27 122.06 -27 119 C-29.97 119 -32.94 119 -36 119 C-36 94.58 -36 70.16 -36 45 C-33.03 45 -30.06 45 -27 45 C-27 39.06 -27 33.12 -27 27 C-24.03 27 -21.06 27 -18 27 C-18 24.03 -18 21.06 -18 18 C-15.03 18 -12.06 18 -9 18 C-9 15.03 -9 12.06 -9 9 C-6.03 9 -3.06 9 0 9 C0 6.03 0 3.06 0 0 Z " fill="#CC4F38" transform="translate(36,0)"/>
<path d="M0 0 C1.12591553 0.00523682 2.25183105 0.01047363 3.41186523 0.01586914 C4.50571533 0.0183667 5.59956543 0.02086426 6.7265625 0.0234375 C8.82729126 0.03709351 8.82729126 0.03709351 10.97045898 0.05102539 C17.62202148 0.08196289 17.62202148 0.08196289 24.40795898 0.11352539 C24.40795898 12.32352539 24.40795898 24.53352539 24.40795898 37.11352539 C21.43795898 37.11352539 18.46795898 37.11352539 15.40795898 37.11352539 C15.40795898 34.14352539 15.40795898 31.17352539 15.40795898 28.11352539 C9.13795898 28.11352539 2.86795898 28.11352539 -3.59204102 28.11352539 C-3.59204102 31.08352539 -3.59204102 34.05352539 -3.59204102 37.11352539 C-6.56204102 37.11352539 -9.53204102 37.11352539 -12.59204102 37.11352539 C-12.59204102 27.87352539 -12.59204102 18.63352539 -12.59204102 9.11352539 C-9.62204102 9.11352539 -6.65204102 9.11352539 -3.59204102 9.11352539 C-3.61266602 7.81415039 -3.63329102 6.51477539 -3.65454102 5.17602539 C-3.67603556 3.82186906 -3.663523 2.46596456 -3.59204102 1.11352539 C-2.59204102 0.11352539 -2.59204102 0.11352539 0 0 Z " fill="#FCF8F7" transform="translate(94.592041015625,26.886474609375)"/>
<path d="M0 0 C5.94 0 11.88 0 18 0 C18 3.3 18 6.6 18 10 C20.97 10 23.94 10 27 10 C27 18.91 27 27.82 27 37 C24.03 37 21.06 37 18 37 C18 34.03 18 31.06 18 28 C11.73 28 5.46 28 -1 28 C-1 30.97 -1 33.94 -1 37 C-3.97 37 -6.94 37 -10 37 C-10 28.09 -10 19.18 -10 10 C-6.7 10 -3.4 10 0 10 C0 6.7 0 3.4 0 0 Z " fill="#FDFAFA" transform="translate(37,27)"/>
<path d="M0 0 C6.27 0 12.54 0 19 0 C19 5.94 19 11.88 19 18 C12.73 18 6.46 18 0 18 C0 12.06 0 6.12 0 0 Z " fill="#396A91" transform="translate(91,55)"/>
<path d="M0 0 C6.27 0 12.54 0 19 0 C19 5.94 19 11.88 19 18 C12.73 18 6.46 18 0 18 C0 12.06 0 6.12 0 0 Z " fill="#396A91" transform="translate(36,55)"/>
<path d="M0 0 C2.97 0 5.94 0 9 0 C9 2.97 9 5.94 9 9 C6.03 9 3.06 9 0 9 C0 6.03 0 3.06 0 0 Z " fill="#CD4E38" transform="translate(110,27)"/>
</svg>
