<?xml version="1.0" encoding="UTF-8"?>
<svg version="1.1" xmlns="http://www.w3.org/2000/svg" width="128" height="128">
<path d="M0 0 C2.7265625 1.3984375 2.7265625 1.3984375 5.125 2.875 C5.85460937 3.32101563 6.58421875 3.76703125 7.3359375 4.2265625 C16.62855018 10.59965702 22.03350763 18.91729436 26.6796875 28.93359375 C27.94665635 31.91185239 27.94665635 31.91185239 30.125 33.875 C30.25 37 30.25 37 30.125 39.875 C31.07375 40.1225 32.0225 40.37 33 40.625 C36.125 41.875 36.125 41.875 37.29931641 43.61157227 C38.95418004 48.14801246 38.49434622 53.03787949 38.5 57.8125 C38.52449219 58.89724609 38.54898438 59.98199219 38.57421875 61.09960938 C38.60334373 68.99733407 38.60334373 68.99733407 36.3515625 73.12890625 C34.125 74.875 34.125 74.875 30.125 74.875 C30.186875 75.7825 30.24875 76.69 30.3125 77.625 C30.125 80.875 30.125 80.875 29.125 83.25 C25.94868122 85.83075901 23.13054268 85.13765854 19.125 84.875 C18.98964844 85.49246094 18.85429688 86.10992187 18.71484375 86.74609375 C16.05251937 97.22002859 10.12990972 104.07873627 1.125 109.875 C0.135 110.37 0.135 110.37 -0.875 110.875 C-1.34501033 114.15055608 -1.34501033 114.15055608 -1.5 117.9375 C-1.57476562 119.22785156 -1.64953125 120.51820312 -1.7265625 121.84765625 C-1.80003906 123.34619141 -1.80003906 123.34619141 -1.875 124.875 C-5.64784435 125.75161612 -9.14583448 126.00368189 -13.015625 126.0078125 C-14.16804688 126.00910156 -15.32046875 126.01039063 -16.5078125 126.01171875 C-17.70148438 126.00785156 -18.89515625 126.00398437 -20.125 126 C-21.93871094 126.00580078 -21.93871094 126.00580078 -23.7890625 126.01171875 C-24.93632813 126.01042969 -26.08359375 126.00914062 -27.265625 126.0078125 C-28.31782227 126.00668457 -29.37001953 126.00555664 -30.45410156 126.00439453 C-32.875 125.875 -32.875 125.875 -33.875 124.875 C-33.875 122.64583333 -33.875 120.41666667 -33.875 118.1875 C-34.072487 113.02970789 -34.072487 113.02970789 -36.73046875 108.859375 C-38.29709796 107.90417729 -39.8969963 107.00170749 -41.5234375 106.15234375 C-47.70966851 102.79204883 -51.33135166 96.24077961 -53.875 89.875 C-54.625 86.875 -54.625 86.875 -54.875 84.875 C-56.133125 84.9575 -57.39125 85.04 -58.6875 85.125 C-62.58428484 85.11120607 -62.58428484 85.11120607 -64.875 83.25 C-66.10818878 80.32117664 -66.0895758 78.02211179 -65.875 74.875 C-66.638125 74.7925 -67.40125 74.71 -68.1875 74.625 C-71.51795369 73.69557106 -72.13777097 72.8127862 -73.875 69.875 C-74.26318359 67.29711914 -74.26318359 67.29711914 -74.2734375 64.41015625 C-74.27730469 63.36279297 -74.28117187 62.31542969 -74.28515625 61.23632812 C-74.26775391 59.6034082 -74.26775391 59.6034082 -74.25 57.9375 C-74.26160156 56.85275391 -74.27320312 55.76800781 -74.28515625 54.65039062 C-74.28128906 53.60173828 -74.27742188 52.55308594 -74.2734375 51.47265625 C-74.27005371 50.51883057 -74.26666992 49.56500488 -74.26318359 48.58227539 C-73.80183102 45.36470389 -72.81179824 43.46938873 -70.875 40.875 C-68.1875 40.0625 -68.1875 40.0625 -65.875 39.875 C-65.9575 38.9675 -66.04 38.06 -66.125 37.125 C-65.80965779 33.02555126 -64.71773044 32.71773044 -61.875 29.875 C-61.19974919 28.31243615 -60.58054825 26.72516661 -60 25.125 C-55.86234779 14.22971503 -47.56974751 5.79651207 -37 0.9375 C-25.99938463 -3.68526572 -11.22784328 -4.50847761 0 0 Z " fill="#060505" transform="translate(81.875,2.125)"/>
<path d="M0 0 C0.25 3.25 0.25 3.25 0 7 C-1.33333333 8.33333333 -2.66666667 9.66666667 -4 11 C-4.65216329 13.69734738 -4.81427773 16.21416593 -5 19 C-5.99 19.33 -6.98 19.66 -8 20 C-8 20.66 -8 21.32 -8 22 C-7.36550934 22.01030746 -6.73101868 22.02061493 -6.07730103 22.03123474 C0.50846962 22.13916135 7.09409959 22.25377035 13.6796875 22.37231445 C16.13961859 22.41570779 18.59958065 22.45737956 21.05957031 22.49731445 C24.58928784 22.55491057 28.11884876 22.61863557 31.6484375 22.68359375 C32.75367767 22.70030624 33.85891785 22.71701874 34.99765015 22.73423767 C36.52901108 22.7641555 36.52901108 22.7641555 38.09130859 22.79467773 C39.44366104 22.81799416 39.44366104 22.81799416 40.82333374 22.84178162 C43 23 43 23 45 24 C48.39142317 28.98588705 47.3719204 35.5343688 47.37060547 41.32666016 C47.37498647 43.49330817 47.41135172 45.65792981 47.44921875 47.82421875 C47.45508615 49.20572223 47.45905606 50.58723534 47.4609375 51.96875 C47.46915527 53.22107422 47.47737305 54.47339844 47.48583984 55.76367188 C47 59 47 59 45.20385742 61.40405273 C41.95751889 63.75492401 38.79740429 63.63707933 34.9375 63.5625 C34.18106201 63.55734375 33.42462402 63.5521875 32.64526367 63.546875 C26.85480446 63.35950942 22.44438716 62.03066135 17.39453125 59.09375 C14.35201047 57.70401783 12.31849615 57.65788699 9 58 C6.33752413 59.07144061 6.33752413 59.07144061 3.6875 60.5 C-1.68972524 62.88163176 -6.20993049 63.46720218 -12 63.4375 C-12.73001221 63.43492188 -13.46002441 63.43234375 -14.2121582 63.4296875 C-17.89756116 63.32687491 -20.93188432 63.15535127 -24 61 C-26.19411207 56.61177587 -25.30951422 50.75300122 -25.35009766 45.87915039 C-25.36664004 44.42325842 -25.39390836 42.9674471 -25.43212891 41.51196289 C-25.48708123 39.40728877 -25.50879616 37.30451493 -25.5234375 35.19921875 C-25.54325684 33.93940186 -25.56307617 32.67958496 -25.58349609 31.3815918 C-24.84528126 27.10334341 -23.35302233 25.66513552 -20 23 C-17.1875 22.1875 -17.1875 22.1875 -15 22 C-15 21.34 -15 20.68 -15 20 C-16.32 19.67 -17.64 19.34 -19 19 C-17.57784548 12.06699671 -12.60466779 6.6247581 -6.98828125 2.53515625 C-2.68483096 0 -2.68483096 0 0 0 Z " fill="#7F7F7F" transform="translate(52,16)"/>
<path d="M0 0 C1.17814339 0.64616848 2.34370044 1.31550977 3.5 2 C8.42061347 4.69687469 13.14742061 4.2452686 18.6328125 4.07421875 C22.54913398 3.98789612 26.14135413 4.38261666 30 5 C28.6425881 14.35105979 24.53058014 21.45379125 17.125 27.4375 C8.05788105 33.54569273 -1.88411023 34.36288013 -12.58203125 32.56640625 C-21.39064919 30.08271538 -27.77848772 24.02490986 -32.80859375 16.6015625 C-34.51558354 12.87416841 -35.22836575 9.01163046 -36 5 C-35.410979 4.9906543 -34.82195801 4.98130859 -34.21508789 4.97167969 C-31.49676984 4.91736125 -28.78006152 4.8338416 -26.0625 4.75 C-25.13630859 4.73582031 -24.21011719 4.72164063 -23.25585938 4.70703125 C-17.44518934 4.50314809 -13.0677391 3.55637943 -7.87890625 0.89746094 C-5.03182988 -0.46244716 -3.09708663 -0.52716368 0 0 Z " fill="#F8CCA0" transform="translate(67,79)"/>
<path d="M0 0 C2.625 0.375 2.625 0.375 5 1 C5 1.66 5 2.32 5 3 C6.19625 3.020625 7.3925 3.04125 8.625 3.0625 C17.55129869 4.06529621 27.55217616 9.27024812 33.53515625 15.96875 C41 26.32 41 26.32 41 32 C38.67578125 32.28515625 38.67578125 32.28515625 36 32 C34.48046875 30.05859375 34.48046875 30.05859375 33.1875 27.4375 C28.48673802 19.01183043 22.35264891 14.33122167 13.3515625 10.87890625 C2.24635182 7.96670065 -8.28475066 9.6394737 -18.125 15.1875 C-24.42627213 19.36319331 -29.05577787 25.07241852 -32 32 C-33.65 32 -35.3 32 -37 32 C-35.61424884 23.13434199 -30.18674224 16.3723782 -23.421875 10.75390625 C-17.35431768 6.35982038 -11.20482587 3.6582842 -3.8125 2.45703125 C-1.76319445 2.10503195 -1.76319445 2.10503195 0 0 Z " fill="#787878" transform="translate(62,1)"/>
<path d="M0 0 C0.51820312 0.16242188 1.03640625 0.32484375 1.5703125 0.4921875 C4.7083677 1.14805113 7.67015382 1.13189214 10.875 1.125 C12.06867188 1.12757812 13.26234375 1.13015625 14.4921875 1.1328125 C17.75347351 1.00933396 20.79938334 0.61663257 24 0 C24.02686553 1.97909398 24.04633375 3.95828971 24.0625 5.9375 C24.07410156 7.03964844 24.08570312 8.14179687 24.09765625 9.27734375 C24 12 24 12 23 13 C21.37742456 13.0991657 19.75060169 13.13079777 18.125 13.1328125 C17.14015625 13.13410156 16.1553125 13.13539062 15.140625 13.13671875 C14.10421875 13.13285156 13.0678125 13.12898438 12 13.125 C10.44539063 13.13080078 10.44539063 13.13080078 8.859375 13.13671875 C7.87453125 13.13542969 6.8896875 13.13414063 5.875 13.1328125 C4.96492188 13.13168457 4.05484375 13.13055664 3.1171875 13.12939453 C1 13 1 13 0 12 C-0.07244053 9.98035801 -0.08377188 7.95832876 -0.0625 5.9375 C-0.05347656 4.83277344 -0.04445312 3.72804688 -0.03515625 2.58984375 C-0.02355469 1.73519531 -0.01195312 0.88054687 0 0 Z " fill="#FCCFA2" transform="translate(52,114)"/>
<path d="M0 0 C0.78890625 -0.00386719 1.5778125 -0.00773437 2.390625 -0.01171875 C3.21046875 -0.00011719 4.0303125 0.01148438 4.875 0.0234375 C6.10476562 0.00603516 6.10476562 0.00603516 7.359375 -0.01171875 C8.54273437 -0.00591797 8.54273437 -0.00591797 9.75 0 C10.46929687 0.00338379 11.18859375 0.00676758 11.9296875 0.01025391 C14.43171882 0.50952973 15.32727956 1.4034784 16.875 3.3984375 C17.25 5.8984375 17.25 5.8984375 16.875 8.3984375 C15.32727956 10.3933966 14.43171882 11.28734527 11.9296875 11.78662109 C11.21039063 11.79000488 10.49109375 11.79338867 9.75 11.796875 C8.96109375 11.80074219 8.1721875 11.80460937 7.359375 11.80859375 C6.53953125 11.79699219 5.7196875 11.78539062 4.875 11.7734375 C3.64523438 11.79083984 3.64523438 11.79083984 2.390625 11.80859375 C1.20726562 11.80279297 1.20726562 11.80279297 0 11.796875 C-0.71929687 11.79349121 -1.43859375 11.79010742 -2.1796875 11.78662109 C-4.68171882 11.28734527 -5.57727956 10.3933966 -7.125 8.3984375 C-7.5 5.8984375 -7.5 5.8984375 -7.125 3.3984375 C-4.95433543 0.60052456 -3.49815076 0.01645635 0 0 Z " fill="#080F11" transform="translate(59.125,41.6015625)"/>
<path d="M0 0 C2.98097302 2.344519 3.92514684 3.51868004 4.51757812 7.328125 C4.52208984 8.62234375 4.52660156 9.9165625 4.53125 11.25 C4.53699036 12.29269043 4.53699036 12.29269043 4.54284668 13.35644531 C4.5455618 14.82228041 4.53822835 16.28816428 4.52148438 17.75390625 C4.50006419 19.99328975 4.52129443 22.22946587 4.546875 24.46875 C4.54423165 25.89584039 4.5391065 27.32292879 4.53125 28.75 C4.52673828 30.04421875 4.52222656 31.3384375 4.51757812 32.671875 C3.91936882 36.5184737 3.03893862 37.66191837 0 40 C-2.70879335 41.35439668 -5.00933268 41.06501451 -8 41 C-8 41.66 -8 42.32 -8 43 C-10.97 43.495 -10.97 43.495 -14 44 C-14 43.01 -14 42.02 -14 41 C-15.19625 40.896875 -16.3925 40.79375 -17.625 40.6875 C-20.62088276 40.33134611 -22.15488634 39.91582264 -24.875 38.4375 C-29.31956714 36.39299912 -33.1810798 36.31569892 -38 37 C-39.5430474 37.61350077 -41.06473319 38.28301112 -42.5625 39 C-47.36140227 41.14305045 -51.69453149 41.44741197 -56.875 41.5 C-57.61306885 41.51804688 -58.3511377 41.53609375 -59.11157227 41.5546875 C-62.75414304 41.51461797 -64.63882066 41.29254402 -67.5078125 38.96875 C-68.00023438 38.3190625 -68.49265625 37.669375 -69 37 C-68.2575 37.23589844 -68.2575 37.23589844 -67.5 37.4765625 C-57.54190689 39.56153824 -47.62944645 38.79102854 -38.61328125 34.09375 C-35.47591907 32.78065372 -33.37507746 32.64472869 -30 33 C-27.60546875 34.09375 -27.60546875 34.09375 -25.1875 35.5 C-20.02722252 38.00540369 -15.63792227 38.49522463 -10 38.5 C-9.2577417 38.50580078 -8.5154834 38.51160156 -7.75073242 38.51757812 C-3.82455824 38.44317217 -3.82455824 38.44317217 -0.29394531 36.90405273 C1.67768054 34.00278669 1.35393488 31.53939307 1.328125 28.06640625 C1.32531525 27.05488747 1.32531525 27.05488747 1.32244873 26.02293396 C1.31573352 24.59816538 1.30182932 23.17341507 1.28125 21.7487793 C1.25016267 19.57388053 1.24028359 17.39970811 1.234375 15.22460938 C1.3736093 7.52128749 1.3736093 7.52128749 0 0 Z " fill="#515150" transform="translate(97,40)"/>
<path d="M0 0 C1.02544922 -0.00128906 2.05089844 -0.00257812 3.10742188 -0.00390625 C4.72680664 0.00189453 4.72680664 0.00189453 6.37890625 0.0078125 C7.45462891 0.00394531 8.53035156 0.00007813 9.63867188 -0.00390625 C11.1787793 -0.00197266 11.1787793 -0.00197266 12.75 0 C13.69673584 0.00112793 14.64347168 0.00225586 15.61889648 0.00341797 C17.94140625 0.1328125 17.94140625 0.1328125 19.94140625 1.1328125 C19.94140625 3.7728125 19.94140625 6.4128125 19.94140625 9.1328125 C11.36140625 9.1328125 2.78140625 9.1328125 -6.05859375 9.1328125 C-6.05859375 0.00722675 -6.05859375 0.00722675 0 0 Z " fill="#BCBCBC" transform="translate(57.05859375,25.8671875)"/>
<path d="M0 0 C0.25 3.25 0.25 3.25 0 7 C-1.33333333 8.33333333 -2.66666667 9.66666667 -4 11 C-4.38843559 12.97789857 -4.38843559 12.97789857 -4.5 15.125 C-5 19 -5 19 -6.75 20.5 C-11.45713096 21.5460291 -14.62029703 21.00214993 -19 19 C-17.57784548 12.06699671 -12.60466779 6.6247581 -6.98828125 2.53515625 C-2.68483096 0 -2.68483096 0 0 0 Z " fill="#F5CA9E" transform="translate(52,16)"/>
<path d="M0 0 C6.93300329 1.42215452 12.3752419 6.39533221 16.46484375 12.01171875 C19 16.31516904 19 16.31516904 19 19 C14.38 19 9.76 19 5 19 C4.57682292 16.4609375 4.15364583 13.921875 3.73046875 11.3828125 C3.16948699 8.65587522 3.16948699 8.65587522 0 7 C-0.1875 3.375 -0.1875 3.375 0 0 Z " fill="#F1A059" transform="translate(76,16)"/>
<path d="M0 0 C2.875 -0.125 2.875 -0.125 6 0 C8 2 8 2 8.24723816 3.90419006 C8.24510063 5.06548683 8.24510063 5.06548683 8.24291992 6.25024414 C8.24599655 7.12777847 8.24907318 8.00531281 8.25224304 8.90943909 C8.24505753 9.85842575 8.23787201 10.80741241 8.23046875 11.78515625 C8.22978142 13.24229286 8.22978142 13.24229286 8.2290802 14.72886658 C8.22605624 16.78418193 8.21816566 18.83949495 8.20581055 20.89477539 C8.18755503 24.05297905 8.18530081 27.21088973 8.18554688 30.36914062 C8.18063182 32.36198172 8.17480355 34.35482082 8.16796875 36.34765625 C8.16685593 37.29866714 8.1657431 38.24967804 8.16459656 39.22950745 C8.15821671 40.10388962 8.15183685 40.97827179 8.14526367 41.87915039 C8.14145187 42.65255264 8.13764008 43.4259549 8.13371277 44.22279358 C8 46 8 46 7 47 C5.00041636 47.04080783 2.99954746 47.04254356 1 47 C2.875 42.25 2.875 42.25 4 40 C4.1349498 37.57779073 4.21254926 35.1855955 4.23828125 32.76171875 C4.246353 32.04393753 4.25442474 31.32615631 4.26274109 30.58662415 C4.27657786 29.06599337 4.28730185 27.54533159 4.29516602 26.0246582 C4.31235842 23.70658958 4.35624181 21.38995531 4.40039062 19.07226562 C4.41051977 17.59376047 4.41903519 16.11524321 4.42578125 14.63671875 C4.44328934 13.94696457 4.46079742 13.25721039 4.47883606 12.54655457 C4.45716859 7.70396846 3.22956204 5.51484069 0 2 C0 1.34 0 0.68 0 0 Z " fill="#B7B7B7" transform="translate(100,36)"/>
<path d="M0 0 C0.94875 0.04125 1.8975 0.0825 2.875 0.125 C1.67118552 2.61861571 0.42071278 4.80643083 -1.125 7.125 C-1.33229225 9.60845327 -1.42905902 11.97704261 -1.42578125 14.4609375 C-1.43006638 15.17730377 -1.4343515 15.89367004 -1.43876648 16.63174438 C-1.44450519 18.1464126 -1.4450134 19.66110838 -1.44067383 21.17578125 C-1.43752068 23.48485807 -1.46095269 25.7926447 -1.48632812 28.1015625 C-1.48860198 29.57551922 -1.48930421 31.04947938 -1.48828125 32.5234375 C-1.497491 33.21005463 -1.50670074 33.89667175 -1.51618958 34.60409546 C-1.47416666 38.99357085 -0.59351478 41.53257872 1.875 45.125 C1.875 45.785 1.875 46.445 1.875 47.125 C-0.12454746 47.16754356 -2.12541636 47.16580783 -4.125 47.125 C-5.66656555 45.58343445 -5.25968494 44.15054236 -5.27026367 42.00415039 C-5.27664352 41.12976822 -5.28302338 40.25538605 -5.28959656 39.35450745 C-5.29070938 38.40349655 -5.2918222 37.45248566 -5.29296875 36.47265625 C-5.29629715 35.50218857 -5.29962555 34.53172089 -5.30305481 33.53184509 C-5.3081283 31.4747668 -5.31046301 29.41768025 -5.31030273 27.3605957 C-5.31248826 24.20445256 -5.33063691 21.04865929 -5.34960938 17.89257812 C-5.35254333 15.8984387 -5.35452811 13.90429761 -5.35546875 11.91015625 C-5.36265427 10.96116959 -5.36983978 10.01218292 -5.37724304 9.03443909 C-5.37416641 8.15690475 -5.37108978 7.27937042 -5.36791992 6.37524414 C-5.36934494 5.6010463 -5.37076996 4.82684845 -5.37223816 4.02919006 C-4.90593442 0.43779081 -3.39533265 0.13581331 0 0 Z " fill="#B7B7B7" transform="translate(25.125,35.875)"/>
<path d="M0 0 C2.31 0 4.62 0 7 0 C5.63895613 9.37607997 1.49023773 16.44577459 -5.875 22.5 C-9.95661945 25.33312409 -14.12354485 26.34529074 -19 27 C-18.319375 26.46375 -17.63875 25.9275 -16.9375 25.375 C-15.968125 24.59125 -14.99875 23.8075 -14 23 C-13.44570312 22.61070313 -12.89140625 22.22140625 -12.3203125 21.8203125 C-5.40820525 16.62855195 -1.33809392 8.47978123 0 0 Z " fill="#F0A05A" transform="translate(90,84)"/>
<path d="M0 0 C5.28 0 10.56 0 16 0 C16 2.97 16 5.94 16 9 C10.72 9 5.44 9 0 9 C0 6.03 0 3.06 0 0 Z " fill="#535353" transform="translate(56,14)"/>
<path d="M0 0 C1.32 0.33 2.64 0.66 4 1 C6.29012477 1.09381234 8.58295988 1.12992912 10.875 1.125 C12.06867188 1.12757812 13.26234375 1.13015625 14.4921875 1.1328125 C17.75347351 1.00933396 20.79938334 0.61663257 24 0 C24 3.96 24 7.92 24 12 C23.67 12 23.34 12 23 12 C23 9.36 23 6.72 23 4 C22.50757812 4.16242188 22.01515625 4.32484375 21.5078125 4.4921875 C17.97048625 5.20846852 14.4674662 5.14427978 10.875 5.125 C10.14667969 5.12886719 9.41835938 5.13273437 8.66796875 5.13671875 C3.25342069 5.12671034 3.25342069 5.12671034 1 4 C1 6.64 1 9.28 1 12 C0.67 12 0.34 12 0 12 C0 8.04 0 4.08 0 0 Z " fill="#D59156" transform="translate(52,114)"/>
<path d="M0 0 C2.98097302 2.344519 3.92514684 3.51868004 4.51757812 7.328125 C4.52208984 8.62234375 4.52660156 9.9165625 4.53125 11.25 C4.5350769 11.94512695 4.53890381 12.64025391 4.54284668 13.35644531 C4.5455618 14.82228041 4.53822835 16.28816428 4.52148438 17.75390625 C4.50006419 19.99328975 4.52129443 22.22946587 4.546875 24.46875 C4.54423165 25.89584039 4.5391065 27.32292879 4.53125 28.75 C4.52673828 30.04421875 4.52222656 31.3384375 4.51757812 32.671875 C4 36 4 36 2.20117188 38.4375 C-0.8894106 40.63134737 -3.30807414 40.2839943 -7 40 C-7 39.67 -7 39.34 -7 39 C-5.865625 38.71125 -4.73125 38.4225 -3.5625 38.125 C-2.386875 37.75375 -1.21125 37.3825 0 37 C1.46887985 34.0622403 1.12988606 31.4404248 1.1328125 28.1640625 C1.13376923 27.4883017 1.13472595 26.81254089 1.13571167 26.11630249 C1.13639249 24.68560696 1.13454501 23.25490835 1.13037109 21.82421875 C1.12503799 19.64055373 1.13031072 17.45709596 1.13671875 15.2734375 C1.13605763 13.88281205 1.13477575 12.49218672 1.1328125 11.1015625 C1.13168457 9.83650879 1.13055664 8.57145508 1.12939453 7.26806641 C1.02484004 4.62737508 0.79003965 2.50035388 0 0 Z " fill="#575757" transform="translate(97,40)"/>
<path d="M0 0 C5.53710844 4.31894458 9.61621268 8.80258732 13 15 C13 15.66 13 16.32 13 17 C10.36 17 7.72 17 5 17 C4.89042969 16.30132812 4.78085938 15.60265625 4.66796875 14.8828125 C4.50941406 13.97273438 4.35085937 13.06265625 4.1875 12.125 C4.03667969 11.22007813 3.88585937 10.31515625 3.73046875 9.3828125 C3.16948699 6.65587522 3.16948699 6.65587522 0 5 C-0.1875 2.375 -0.1875 2.375 0 0 Z " fill="#F9CC9E" transform="translate(76,18)"/>
<path d="M0 0 C0.99 0.33 1.98 0.66 3 1 C3 8.92 3 16.84 3 25 C2.01 25.33 1.02 25.66 0 26 C0 17.42 0 8.84 0 0 Z " fill="#585858" transform="translate(112,47)"/>
<path d="M0 0 C0.66 0 1.32 0 2 0 C2 8.58 2 17.16 2 26 C1.01 25.67 0.02 25.34 -1 25 C-1.02886984 21.02084841 -1.04675406 17.04172347 -1.0625 13.0625 C-1.07087891 11.92619141 -1.07925781 10.78988281 -1.08789062 9.61914062 C-1.09111328 8.53955078 -1.09433594 7.45996094 -1.09765625 6.34765625 C-1.10289307 5.34742432 -1.10812988 4.34719238 -1.11352539 3.31665039 C-1 1 -1 1 0 0 Z " fill="#585858" transform="translate(14,47)"/>
<path d="M0 0 C0.33 0 0.66 0 1 0 C1.0093457 0.77601562 1.01869141 1.55203125 1.02832031 2.3515625 C1.08233437 5.90166287 1.16592303 9.45048948 1.25 13 C1.26417969 14.22074219 1.27835938 15.44148438 1.29296875 16.69921875 C1.48898857 23.95195226 2.25718207 28.77195097 6 35 C6 35.66 6 36.32 6 37 C4.02 37 2.04 37 0 37 C0 24.79 0 12.58 0 0 Z " fill="#C6C6C6" transform="translate(21,46)"/>
<path d="M0 0 C7.10899039 5.4028327 12.61029641 11.934608 14 21 C12.35 21 10.7 21 9 21 C8.34 19.35 7.68 17.7 7 16 C7.66 16 8.32 16 9 16 C7.05791777 11.82811966 5.27613864 8.10807695 2.25 4.625 C0 2 0 2 0 0 Z " fill="#515151" transform="translate(89,12)"/>
<path d="M0 0 C0.33 0 0.66 0 1 0 C1 11.88 1 23.76 1 36 C-0.98 36 -2.96 36 -5 36 C-3 31 -3 31 -1.95556641 28.71020508 C-0.86959949 25.6301543 -0.68231956 23.08514501 -0.5859375 19.82421875 C-0.52792969 18.08881836 -0.52792969 18.08881836 -0.46875 16.31835938 C-0.4378125 15.12017578 -0.406875 13.92199219 -0.375 12.6875 C-0.31699219 10.8612207 -0.31699219 10.8612207 -0.2578125 8.99804688 C-0.16371998 5.99884772 -0.07807791 2.99965177 0 0 Z " fill="#C5C5C5" transform="translate(106,47)"/>
<path d="M0 0 C5.28 0 10.56 0 16 0 C16 0.99 16 1.98 16 3 C10.72 3 5.44 3 0 3 C0 2.01 0 1.02 0 0 Z " fill="#60D5F6" transform="translate(56,46)"/>
</svg>
