<?xml version="1.0" encoding="UTF-8"?>
<svg version="1.1" xmlns="http://www.w3.org/2000/svg" width="128" height="128">
<path d="M0 0 C1.06992188 0.474375 2.13984375 0.94875 3.2421875 1.4375 C19.75466286 9.51889971 30.60523995 22.82755446 37 40 C41.30117326 53.9146728 41.09524021 71.68480263 35 85 C34.525625 86.06992188 34.05125 87.13984375 33.5625 88.2421875 C25.53996296 104.63439059 12.16715507 115.82260053 -5 122 C-22.41824347 127.05634913 -41.59366026 125.04005104 -57.41772461 116.46020508 C-72.85764719 107.52172136 -82.86748581 93.36904589 -88.11328125 76.3984375 C-91.19627114 63.38867917 -90.58043482 47.19059274 -85 35 C-84.2884375 33.39511719 -84.2884375 33.39511719 -83.5625 31.7578125 C-75.48110029 15.24533714 -62.17244554 4.39476005 -45 -2 C-31.0853272 -6.30117326 -13.31519737 -6.09524021 0 0 Z " fill="#495157" transform="translate(89,4)"/>
<path d="M0 0 C3.81267553 0.31038134 7.62510484 0.62369514 11.4375 0.9375 C13.04141602 1.06801758 13.04141602 1.06801758 14.67773438 1.20117188 C20.79878623 1.70657983 26.89946889 2.28795063 33 3 C33.18876709 3.62914307 33.37753418 4.25828613 33.57202148 4.90649414 C36.26202312 13.70881493 40.19920714 19.09403262 48 24 C53.73584243 26.74322899 60.29455066 27.06214835 66.3984375 25.3125 C74.16996345 22.12962248 79.68213896 17.66275673 83.2734375 10.02734375 C84.10291644 7.71282994 84.53800318 5.41196085 85 3 C89.39532675 2.49547893 93.79133638 1.99717184 98.1875 1.5 C99.43337891 1.35691406 100.67925781 1.21382813 101.96289062 1.06640625 C103.16494141 0.93105469 104.36699219 0.79570313 105.60546875 0.65625 C106.71043701 0.53056641 107.81540527 0.40488281 108.95385742 0.27539062 C111.65945712 0.03078724 114.28596085 -0.05299995 117 0 C118.25111908 15.18024488 112.45783984 28.19560574 102.75 39.65625 C92.08604463 51.00379225 77.80480542 58.24780515 62.140625 59.16796875 C44.14638801 59.28955143 29.47353775 53.10650992 16.3125 40.8125 C5.86410154 29.92105991 -0.29591708 15.09177098 0 0 Z " fill="#FDFDFD" transform="translate(5,64)"/>
<path d="M0 0 C11.76729733 8.45478736 22.06458042 21.52973046 24.9140625 36.09375 C25.10577218 38.49235019 25.06791105 40.68345607 24.9140625 43.09375 C14.61088503 46.60619687 3.6810836 46.25004547 -7.0859375 46.09375 C-7.25609375 45.51367188 -7.42625 44.93359375 -7.6015625 44.3359375 C-10.33075657 35.53864172 -14.01490549 30.18046514 -21.9609375 25.34375 C-28.48264547 22.74940024 -36.92123858 23.01733551 -43.625 24.75 C-50.62294366 27.88421415 -55.21609949 34.14572113 -58.0859375 41.09375 C-58.44206847 42.75569453 -58.77916677 44.42199027 -59.0859375 46.09375 C-66.37691533 46.31847192 -73.48119902 46.0740233 -80.7109375 45.15625 C-81.39736328 45.06939941 -82.08378906 44.98254883 -82.79101562 44.89306641 C-85.68697052 44.50256003 -88.30599923 44.02039609 -91.0859375 43.09375 C-91.64275621 29.81446737 -85.13014532 18.76135145 -76.47265625 9.2109375 C-71.57103438 4.04081587 -66.62293941 -0.89856321 -60.0859375 -3.90625 C-58.59126953 -4.60041016 -58.59126953 -4.60041016 -57.06640625 -5.30859375 C-38.32380749 -12.76843736 -17.03022969 -10.60457575 0 0 Z " fill="#E7514E" transform="translate(97.0859375,14.90625)"/>
<path d="M0 0 C1.25111908 15.18024488 -4.54216016 28.19560574 -14.25 39.65625 C-24.91395537 51.00379225 -39.19519458 58.24780515 -54.859375 59.16796875 C-73.05396927 59.2909052 -87.92533619 53.01181461 -101 40.3125 C-103.61235612 37.68614911 -105.52289371 35.40811504 -107 32 C-103.85776076 33.08014474 -101.28410326 34.45127455 -98.5625 36.3125 C-85.02117282 44.72264036 -69.16498049 46.73975323 -53.640625 43.11328125 C-38.53872051 38.83813046 -26.09622689 29.21785686 -18.32421875 15.6328125 C-16.90393359 12.8090007 -15.74466524 9.93054554 -14.5625 7 C-12.4683138 2.22579415 -12.4683138 2.22579415 -8.5 0.3125 C-5.63109397 0.05634768 -2.87430122 -0.02460874 0 0 Z " fill="#E4E4E4" transform="translate(122,64)"/>
<path d="M0 0 C3.88446678 2.58964452 6.69907021 5.64814041 8.8125 9.875 C9.35610446 14.82982094 9.37687074 18.74625852 7.125 23.25 C3.95995126 26.84275803 0.60048338 30.56912413 -4.359375 31.11328125 C-10.18030158 31.28085338 -13.73626934 31.01567968 -18.1875 26.875 C-21.73618981 22.62033742 -24.07985893 18.54576583 -23.66796875 12.890625 C-22.40705222 7.6009264 -19.42667986 3.33985569 -14.875 0.375 C-9.46372687 -1.82619585 -5.63292814 -1.98809228 0 0 Z " fill="#495459" transform="translate(71.1875,49.125)"/>
<path d="M0 0 C5.57061375 3.32004859 9.26409563 7.7817798 11.27734375 13.95703125 C12.26788061 20.16557477 11.78963328 25.68647274 8.61328125 31.171875 C5.26635659 35.64422755 0.7985882 39.67302091 -4.72265625 40.95703125 C-12.6181484 41.69934248 -17.74582597 40.54659515 -24.41015625 36.20703125 C-29.69124062 31.06867889 -31.00430055 27.31397778 -31.28515625 20.01953125 C-31.02399427 12.32341421 -29.26948642 8.44374565 -23.87890625 3.14453125 C-16.99751278 -2.40166647 -8.21072917 -3.1452865 0 0 Z M-23.11328125 10.56640625 C-25.43078094 14.12425789 -26.41087695 17.66190499 -26.171875 21.90625 C-25.02168543 27.15711541 -21.88931675 30.87176567 -18.03515625 34.45703125 C-13.48951198 36.5154362 -9.63378254 36.74889038 -4.72265625 35.95703125 C0.26403382 33.46368622 3.77409849 29.96352176 6.27734375 24.95703125 C6.82094821 20.00221031 6.84171449 16.08577273 4.58984375 11.58203125 C0.32980155 6.74630767 -2.91176823 4.24288427 -9.41015625 3.58203125 C-15.09652987 3.67628054 -19.43323346 6.30747454 -23.11328125 10.56640625 Z " fill="#576972" transform="translate(73.72265625,44.04296875)"/>
<path d="M0 0 C3.49406769 1.66762322 4.82670681 2.74006022 7 6 C7.79383407 10.93012739 7.71523135 14.80794774 5.125 19.125 C0.74006908 21.75595855 -3.00867369 22.04908008 -8 21 C-10.82424288 18.80977082 -12.41508603 17.16982793 -14 14 C-14.41307941 9.35285663 -13.89446841 6.69294245 -11 3 C-7.32420329 0.11897014 -4.6332435 -0.57915544 0 0 Z " fill="#EEEEEE" transform="translate(67,53)"/>
<path d="M0 0 C4.21056222 2.97086707 6.68552074 6.22572604 9.125 10.6875 C9.47046875 11.30890869 9.8159375 11.93031738 10.171875 12.57055664 C14.06538839 19.73250362 16.52211485 25.82020074 16 34 C12.12315913 35.19287411 9.08378077 36 5 36 C5.03480469 34.99582031 5.06960937 33.99164063 5.10546875 32.95703125 C5.32250989 23.85360987 4.52501668 15.81908264 2 7 C1.78730469 6.22140625 1.57460937 5.4428125 1.35546875 4.640625 C0.92383754 3.08799474 0.46635423 1.5425563 0 0 Z " fill="#CB3B37" transform="translate(106,24)"/>
</svg>
